<svg version="1.1" xmlns="http://www.w3.org/2000/svg" xmlns:xlink="http://www.w3.org/1999/xlink" x="0px" y="0px" viewBox="0 0 512 512" style="display: none;" xml:space="preserve">
  <symbol viewBox="0 0 512 512" id="erlang-companies">
    <title>Erlang Companies</title>
  		<path d="M489.91,227.24h-45.254l-5.892-71.884H290.679l-5.892,71.884h-57.571l-5.892-71.884H73.236l-5.892,71.884H22.09
  			c-12.2,0-22.09,9.891-22.09,22.09v221.339c0,12.2,9.891,22.09,22.09,22.09h467.82c12.2,0,22.09-9.891,22.09-22.09V249.33
  			C512,237.131,502.109,227.24,489.91,227.24z M153.107,382.091H109.28c-12.2,0-22.09-9.891-22.09-22.09
  			c0-12.2,9.891-22.09,22.09-22.09h43.827c12.2,0,22.09,9.891,22.09,22.09C175.197,372.2,165.307,382.091,153.107,382.091z
  			 M277.915,382.091h-43.828c-12.201,0-22.09-9.891-22.09-22.09c0-12.2,9.891-22.09,22.09-22.09h43.828
  			c12.2,0,22.09,9.891,22.09,22.09C300.005,372.2,290.115,382.091,277.915,382.091z M402.72,382.091h-43.827
  			c-12.2,0-22.09-9.891-22.09-22.09c0-12.2,9.891-22.09,22.09-22.09h43.827c12.2,0,22.09,9.891,22.09,22.09
  			C424.81,372.2,414.92,382.091,402.72,382.091z"/>
  		<path d="M211.827,39.525c-0.94-11.462-10.516-20.285-22.017-20.285h-85.065c-11.5,0-21.077,8.824-22.017,20.285l-6.598,80.486
  			h142.293L211.827,39.525z"/>
  		<path d="M429.269,39.525c-0.94-11.462-10.516-20.285-22.017-20.285h-85.065c-11.5,0-21.077,8.824-22.017,20.285l-6.598,80.486
  			h142.293L429.269,39.525z"/>
  </symbol>
</svg>
